<svg xmlns="http://www.w3.org/2000/svg" xmlns:xlink="http://www.w3.org/1999/xlink" width="135" height="145" version="1.1" viewBox="0 0 135 145"><title>B5492998-F614-4C53-B98D-635447B0F888</title><desc>Created with sketchtool.</desc><g id="Dashboard-update" fill="none" fill-rule="evenodd" stroke="none" stroke-width="1"><g id="0.0---No-stars" transform="translate(-693.000000, -139.000000)"><g id="sad-star" transform="translate(693.000000, 142.000000)"><ellipse id="Oval-1" cx="67.5" cy="135.573" fill="#CBD6E2" rx="67.5" ry="6.427"/><g id="Group" stroke="#CBD6E2" stroke-linecap="square" stroke-width="2.25" transform="translate(39.886364, 54.474138)"><path id="Line" d="M0,0 C0,0 2.45454545,4.89655172 9.20454545,4.89655172 C15.9545455,4.89655172 18.4090909,0 18.4090909,0"/><path id="Line" d="M36.8181818,0 C36.8181818,0 39.2727273,4.89655172 46.0227273,4.89655172 C52.7727273,4.89655172 55.2272727,0 55.2272727,0"/></g><path id="Line" stroke="#CBD6E2" stroke-linecap="square" stroke-width="2.25" d="M55.2272727,78.9568966 C55.2272727,78.9568966 58.5,83.8534483 67.5,83.8534483 C76.5,83.8534483 79.7727273,78.9568966 79.7727273,78.9568966" transform="translate(67.500000, 81.405172) rotate(-180.000000) translate(-67.500000, -81.405172)"/><polygon id="Star-1" stroke="#CBD6E2" stroke-width="2.25" points="67.5 104.358 27.824 121.797 32.192 78.771 3.304 46.522 45.678 37.37 67.5 0 89.322 37.37 131.696 46.522 102.808 78.771 107.176 121.797"/></g></g></g></svg>